<svg width="2000" height="1500" viewBox="0 0 2000 1500" fill="none" xmlns="http://www.w3.org/2000/svg">
<rect width="2000" height="1500" rx="50" fill="white"/>
<path fill-rule="evenodd" clip-rule="evenodd" d="M1508.87 862.724C1492.07 848.056 1438.08 797.88 1438.08 758.726C1438.08 712.354 1468.37 681.44 1513.81 681.44C1559.24 681.44 1589.53 720.083 1589.53 758.726C1589.53 791.512 1535.02 846.553 1518.5 862.482C1515.8 865.081 1511.69 865.183 1508.87 862.724ZM1539.05 748.421C1539.05 762.649 1527.75 774.183 1513.81 774.183C1499.86 774.183 1488.56 762.649 1488.56 748.421C1488.56 734.193 1499.86 722.659 1513.81 722.659C1527.75 722.659 1539.05 734.193 1539.05 748.421Z" fill="black"/>
<path d="M1102.62 945.452C1133.79 971.344 1302.2 949.009 1284.5 939.82C1219.34 905.977 1350.32 886.81 1396.11 922.517C1424.63 944.763 1497.88 929.218 1513.81 910.841" stroke="black" stroke-width="10" stroke-miterlimit="3.99933" stroke-linecap="round" stroke-dasharray="30 15"/>
<path d="M512.862 1035.55C503.098 1048.99 488.637 1062.12 483.46 1064.28L481.241 1075.13C507.314 1067 514.526 1050.19 512.862 1035.55Z" fill="black"/>
<path d="M471.62 995.917C474.682 1025.58 470.325 1057.51 466.923 1073.39C466.653 1074.65 467.609 1075.84 468.897 1075.84H480.452C481.339 1075.84 482.122 1075.25 482.356 1074.4C489.703 1047.51 482.779 1015.8 475.354 994.865C474.565 992.639 471.378 993.568 471.62 995.917Z" fill="black"/>
<path d="M485.391 1038.86C500.156 1041.55 519.844 1033.92 530.781 1018.01" stroke="black" stroke-width="5" stroke-linecap="round"/>
<path d="M417.301 1004.86C407.84 1021.16 439.667 1057.32 472.104 1041.55" stroke="black" stroke-width="5" stroke-linecap="round"/>
<path d="M432.479 952.537C413.246 955.253 402.7 981.59 417.301 1004.86C419.959 1009.09 431.492 1013.69 436.899 1013.69" stroke="black" stroke-width="5" stroke-linecap="round"/>
<path d="M530.781 984.823C530.781 964.616 525.381 943.116 493.053 933.511C459.005 923.394 440.503 938.679 432.479 952.537C428.665 959.123 430.141 965.446 432.479 970.882" stroke="black" stroke-width="5" stroke-linecap="round"/>
<path d="M482.656 1010.1C488.337 1004.29 500.268 994.001 495.85 970.522" stroke="black" stroke-width="5" stroke-linecap="round"/>
<path d="M471.333 1021.41C466.877 1020.04 455.826 1013.17 447.27 996.674" stroke="black" stroke-width="5" stroke-linecap="round"/>
<path d="M559.467 950.472C559.467 948.686 561.285 947.476 562.933 948.166L579.118 954.945C580.048 955.334 580.652 956.243 580.652 957.251V998.76C580.652 1000.58 578.763 1001.79 577.106 1001.03L560.921 993.573C560.034 993.165 559.467 992.279 559.467 991.303V950.472Z" stroke="black" stroke-width="5"/>
<path d="M609.007 977.33C609.007 975.544 610.826 974.334 612.473 975.024L628.659 981.803C629.588 982.193 630.193 983.102 630.193 984.109V1025.62C630.193 1027.44 628.303 1028.65 626.647 1027.89L610.461 1020.43C609.575 1020.02 609.007 1019.14 609.007 1018.16V977.33Z" stroke="black" stroke-width="5"/>
<path d="M559.467 869.896C559.467 868.11 561.285 866.901 562.933 867.59L579.118 874.37C580.048 874.759 580.652 875.668 580.652 876.676V918.185C580.652 920.008 578.763 921.218 577.106 920.455L560.921 912.998C560.034 912.59 559.467 911.703 559.467 910.728V869.896Z" stroke="black" stroke-width="5"/>
<path d="M609.007 896.048C609.007 894.262 610.826 893.052 612.473 893.742L628.659 900.522C629.588 900.911 630.193 901.82 630.193 902.827V944.337C630.193 946.16 628.303 947.37 626.647 946.607L610.461 939.15C609.575 938.742 609.007 937.855 609.007 936.879V896.048Z" stroke="black" stroke-width="5"/>
<path d="M581.029 1050.72V1091.79C581.029 1092.97 581.713 1094.03 582.778 1094.52L599.426 1102.16C601.413 1103.07 603.676 1101.62 603.676 1099.43V1057.96C603.676 1056.76 602.968 1055.68 601.872 1055.21L585.225 1047.97C583.244 1047.11 581.029 1048.56 581.029 1050.72Z" fill="black"/>
<path d="M656.756 1129.55L532.458 1068.47C531.432 1067.97 530.781 1066.92 530.781 1065.78V812.905" stroke="black" stroke-width="5" stroke-linecap="round"/>
<path d="M653.676 1129.62V873.696L527.828 815.852C525.263 814.673 525.597 810.927 528.33 810.221L640.227 781.322C640.791 781.177 641.384 781.198 641.935 781.384L756.544 820.001V1080.6C756.544 1081.74 755.908 1082.77 754.899 1083.28L658.03 1132.3C656.035 1133.31 653.676 1131.86 653.676 1129.62Z" fill="black"/>
<path d="M831.563 1065.89L755.681 1045.44V1081.37L683.649 1118.95L831.563 1065.89Z" fill="black"/>
<path d="M1020.91 786.047L943.399 806.309C941.866 806.71 941.386 808.65 942.555 809.72L1001.67 863.793C1002.15 864.237 1002.83 864.414 1003.47 864.266L1085.05 845.45C1086.56 845.102 1087.12 843.246 1086.05 842.123L1035.77 789.203" stroke="black" stroke-width="5" stroke-linecap="round"/>
<path d="M1087.74 844.005L1102.44 764.784C1102.55 764.178 1102.38 763.553 1101.97 763.092L1051.57 706.272C1050.49 705.052 1048.48 705.569 1048.12 707.16L1031.85 779.501" stroke="black" stroke-width="5" stroke-linecap="round"/>
<path d="M940.551 808.664L964.613 731.97C964.81 731.341 965.304 730.85 965.934 730.657L1050.25 704.765" stroke="black" stroke-width="5" stroke-linecap="round"/>
<path d="M1018.12 718.034L1000.38 790.161C1000.22 790.792 1000.38 791.46 1000.81 791.95L1022.56 816.977C1023.56 818.123 1022.96 819.917 1021.48 820.242L1001.26 824.674C1000.56 824.827 999.833 824.596 999.352 824.067L976.682 799.186C976.219 798.677 976.049 797.966 976.233 797.303L997.144 722.032C997.329 721.366 997.845 720.843 998.509 720.648L1015.61 715.637C1017.09 715.204 1018.48 716.537 1018.12 718.034Z" fill="black"/>
<path d="M995.753 754.947L1004.25 614.294" stroke="black" stroke-width="5" stroke-linecap="round"/>
<path d="M995.753 754.947L964.613 627.723" stroke="black" stroke-width="5" stroke-linecap="round"/>
<path d="M993.63 754.948L924.981 667.304" stroke="black" stroke-width="5" stroke-linecap="round"/>
<path d="M994.337 754.948L874.025 678.613" stroke="black" stroke-width="5" stroke-linecap="round"/>
<path d="M883.226 654.582L953.29 719.608" stroke="black" stroke-width="5" stroke-linecap="round"/>
<path d="M978.061 620.655L987.969 701.937" stroke="black" stroke-width="5" stroke-linecap="round"/>
<path d="M972.398 711.833L941.966 635.498" stroke="black" stroke-width="5" stroke-linecap="round"/>
<path d="M822.542 538.369C748.035 516.142 721.76 560.327 719.06 585.422C717.277 667.136 806.814 676.379 849.294 668.542C850.015 668.409 850.728 668.676 851.195 669.241L860.49 680.483C861.54 681.752 863.587 681.28 863.975 679.68L866.012 671.275C866.123 670.816 866.393 670.412 866.773 670.133L871.004 667.028C872.417 665.991 871.908 663.768 870.185 663.449L860.047 661.57C858.307 661.248 857.696 658.832 858.874 657.511C863.306 652.542 868.15 643.436 866.184 631.13" stroke="black" stroke-width="5" stroke-linecap="round"/>
<path d="M909.701 660.925V655.118C909.701 653.811 908.493 652.763 907.192 652.636C886.27 650.594 792.014 593.181 831.001 514.593C856.635 462.92 918.696 486.285 933.986 509.202C959.827 543.333 939.601 628.89 920.249 647.585C919.432 648.374 919.307 649.664 920.041 650.531L925.311 656.754C926.484 658.139 925.333 660.466 923.525 660.629C919.612 660.981 915.441 661.984 912.404 662.89C911.077 663.286 909.701 662.31 909.701 660.925Z" stroke="black" stroke-width="5" stroke-linecap="round"/>
<path d="M947.382 606.476C949.426 607.657 953.074 609.175 956.039 609.809C957.455 610.112 958.62 611.632 958.199 613.018L955.976 620.335C955.46 622.031 957.244 623.51 958.816 622.689L962.985 620.511C963.641 620.168 964.432 620.216 965.042 620.634L967.458 622.291C968.901 623.28 970.829 622.07 970.567 620.341L969.295 611.973C969.134 610.911 969.831 609.916 970.878 609.675C994.349 604.276 1042.32 577.215 1037.93 509.435C1036.57 488.32 1010.45 450.401 954.59 460.465C944.228 462.332 921.252 472.865 912.242 490.117" stroke="black" stroke-width="5" stroke-linecap="round"/>
<path d="M999.292 597.12V605.453C999.292 606.727 1000.47 607.676 1001.71 607.409L1004.53 606.804C1005.2 606.662 1005.89 606.866 1006.37 607.346L1008.49 609.467C1009.75 610.726 1011.9 609.834 1011.9 608.052V598.962C1011.9 597.921 1012.69 597.058 1013.73 596.941C1036.38 594.381 1082.24 576.952 1098.36 525.069C1114.93 471.751 1079.15 453.018 1059.18 450.316" stroke="black" stroke-width="5" stroke-linecap="round"/>
<path d="M1030.68 489.19C1048.23 475.723 1084.67 430.678 1047.78 388.637C1009.98 345.543 922.657 378.761 943.809 461.807" stroke="black" stroke-width="5" stroke-linecap="round"/>
<path d="M949.751 401.21C919.405 394.722 860.156 402.387 865.925 484.949" stroke="black" stroke-width="5" stroke-linecap="round"/>
<path d="M924.273 399.255C908.076 376.456 855.891 344.359 814.042 384.856C774.295 423.319 809.097 479.8 838.792 500.499" stroke="black" stroke-width="5" stroke-linecap="round"/>
<path d="M796.176 436.411C760.28 432.816 698.63 471.371 746.371 542.907" stroke="black" stroke-width="5" stroke-linecap="round"/>
</svg>
