<svg width="24" height="24" viewBox="0 0 24 24" fill="none" xmlns="http://www.w3.org/2000/svg">
<path d="M8.92289 21.9981C10.4839 21.9907 11.7785 21.916 12.8449 21.7951C13.079 21.7685 13.302 21.7398 13.5145 21.709C13.7675 21.6723 14.0055 21.6329 14.2292 21.5909C14.4181 21.5555 14.5968 21.5183 14.7658 21.4795C14.8536 21.4594 14.9387 21.4389 15.0213 21.4179C15.1914 21.3748 15.3505 21.33 15.4991 21.2839C15.5777 21.2595 15.6534 21.2348 15.7262 21.2097C15.8182 21.1779 15.9056 21.1457 15.9886 21.113C16.0971 21.0702 16.1981 21.0266 16.2918 20.9825C16.3534 20.9534 16.4119 20.9242 16.4673 20.8947C16.5465 20.8526 16.6195 20.8101 16.6866 20.7674C16.7287 20.7406 16.7684 20.7137 16.8059 20.6867C16.8354 20.6655 16.8636 20.6442 16.8903 20.6229C16.9214 20.5982 16.9507 20.5734 16.9782 20.5486C17.0121 20.5181 17.0432 20.4875 17.0718 20.4571C17.0947 20.4325 17.116 20.4081 17.1357 20.3836C17.1543 20.3604 17.1715 20.3373 17.1872 20.3143C17.2139 20.2752 17.2364 20.2363 17.2551 20.1978C17.2667 20.1739 17.2767 20.1501 17.2853 20.1265C17.293 20.1056 17.2994 20.0848 17.3048 20.0641C17.3099 20.0445 17.314 20.025 17.3172 20.0056C17.3204 19.9858 17.3226 19.9661 17.3238 19.9466C17.3252 19.9227 17.3252 19.8991 17.3238 19.8757C17.3213 19.8367 17.3149 19.7985 17.3048 19.7614C17.2994 19.7414 17.2929 19.7217 17.2853 19.7023C17.2766 19.6798 17.2665 19.6578 17.2551 19.6362C17.2437 19.6148 17.2311 19.5939 17.2173 19.5734C17.2007 19.5488 17.1823 19.525 17.1624 19.5019C17.1433 19.48 17.1228 19.4587 17.1009 19.4382C17.0719 19.411 17.0404 19.3851 17.0067 19.3607C16.9787 19.3404 16.9491 19.321 16.9181 19.3028C16.9089 19.2973 16.8996 19.292 16.8903 19.2868C16.8506 19.2645 16.8105 19.2443 16.7702 19.2261C16.728 19.2071 16.6855 19.1904 16.6426 19.1758C16.5752 19.1528 16.507 19.1351 16.438 19.1223C16.3497 19.1059 16.26 19.0975 16.1688 19.0961C15.7873 19.0905 15.3811 19.2093 14.9472 19.3883C14.8741 19.4185 14.8002 19.4503 14.7255 19.4836C14.6605 19.5125 14.5949 19.5425 14.5286 19.5734C14.4717 19.5999 14.4143 19.6271 14.3564 19.6548C14.2899 19.6866 14.2228 19.7191 14.155 19.752C14.0891 19.7841 14.0226 19.8166 13.9555 19.8494C13.899 19.8769 13.8421 19.9047 13.7848 19.9326C13.7154 19.9663 13.6453 20.0002 13.5746 20.034C13.5015 20.0689 13.4278 20.1037 13.3533 20.1383C13.2911 20.1672 13.2283 20.1959 13.1651 20.2243C13.0973 20.2547 13.0289 20.2847 12.96 20.3143C12.8855 20.3462 12.8104 20.3774 12.7346 20.4079C12.6341 20.4483 12.5325 20.4873 12.4296 20.5245C12.334 20.559 12.2373 20.5919 12.1396 20.6229C12.047 20.6522 11.9535 20.6798 11.8589 20.7054C11.7016 20.7478 11.5417 20.7846 11.3789 20.8142C11.327 20.8237 11.2476 20.8353 11.1449 20.8488C11.0327 20.8636 10.8925 20.8806 10.7301 20.8996C10.1984 20.9619 9.42768 21.0451 8.61113 21.1381C8.4422 21.1573 8.27131 21.177 8.10017 21.1969C7.61632 21.2534 7.1305 21.3123 6.68138 21.3716C6.51145 21.394 6.34678 21.4164 6.18946 21.4388C5.84218 21.4882 5.53071 21.5371 5.27759 21.5844C5.10137 21.6173 4.95344 21.6493 4.84139 21.6801C4.69231 21.721 4.60677 21.7597 4.60269 21.7951C4.59938 21.8238 4.64984 21.8503 4.76368 21.8741C4.81588 21.8851 4.8814 21.8954 4.96118 21.9051C5.04898 21.9158 5.15404 21.9257 5.27759 21.9348C5.56242 21.9557 5.94555 21.9722 6.4421 21.9833C6.94991 21.9947 7.57635 22.0005 8.33761 21.9998C8.5245 21.9997 8.71951 21.9991 8.92289 21.9981Z" fill="black"/>
<path d="M18.2884 4.42868C18.6261 4.17569 19.2549 3.33577 19.0678 2M18.5595 4.81189C18.8137 4.49346 19.6577 3.9007 21 4.07706M12 14.0204L10.6685 16.2979C10.1843 16.9134 8.76199 16.6672 9.03434 15.3746C9.09212 15.1004 9.44771 14.5981 10.4065 14.6815C10.4645 14.6866 10.5078 14.6251 10.4813 14.5733C10.0518 13.7335 9.58323 12.1791 10.3659 11.8045C11.189 11.4106 11.4351 13.1176 11.4553 14.0204M18.2414 9.72053C18.539 10.2153 18.5233 10.8164 18.4782 11.0551L22.9421 14.4078C23.1585 14.9026 22.7166 14.9178 22.4686 14.8635L17.8694 11.5434C13.9128 12.4222 8.60347 6.56315 9.58418 5.16348C9.91311 4.69403 10.8208 4.61824 12 4.95254M10.144 4.81189C9.01919 5.0404 6.0733 5.75717 5.66836 8.42099C5.16218 11.7508 5.56177 13.3491 2.26007 15.1458C-0.439495 16.6148 1.82142 18.6634 3.27243 18.7367C7.58061 18.9544 16.4602 17.9663 17.513 12.2731M8.92289 21.9981C10.4839 21.9907 11.7785 21.916 12.8449 21.7951M8.92289 21.9981L12.8449 21.7951M8.92289 21.9981C8.71951 21.9991 8.5245 21.9997 8.33761 21.9998M11.3789 20.8142L17.2551 20.1978M11.3789 20.8142C11.5417 20.7846 11.7016 20.7478 11.8589 20.7054M11.3789 20.8142C11.327 20.8237 11.2476 20.8353 11.1449 20.8488M6.4421 21.9833L14.2292 21.5909M6.4421 21.9833C5.94555 21.9722 5.56242 21.9557 5.27759 21.9348M6.4421 21.9833C6.94991 21.9947 7.57635 22.0005 8.33761 21.9998M14.2292 21.5909C14.4181 21.5555 14.5968 21.5183 14.7658 21.4795M14.2292 21.5909C14.0055 21.6329 13.7675 21.6723 13.5145 21.709M14.7658 21.4795L5.27759 21.9348M14.7658 21.4795C14.8536 21.4594 14.9387 21.4389 15.0213 21.4179M5.27759 21.9348C5.15404 21.9257 5.04898 21.9158 4.96118 21.9051M12.8449 21.7951C13.079 21.7685 13.302 21.7398 13.5145 21.709M13.5145 21.709L8.33761 21.9998M15.4991 21.2839C15.5777 21.2595 15.6534 21.2348 15.7262 21.2097M15.4991 21.2839C15.3505 21.33 15.1914 21.3748 15.0213 21.4179M15.4991 21.2839L10.8342 21.5589M4.96118 21.9051C4.8814 21.8954 4.81588 21.8851 4.76368 21.8741M4.96118 21.9051L10.8342 21.5589M4.76368 21.8741L11.2442 21.4347M4.76368 21.8741C4.64984 21.8503 4.59938 21.8238 4.60269 21.7951M15.9886 21.113C15.9056 21.1457 15.8182 21.1779 15.7262 21.2097M15.9886 21.113L11.2442 21.4347M15.9886 21.113C16.0971 21.0702 16.1981 21.0266 16.2918 20.9825M15.7262 21.2097L11.2442 21.4347M15.0213 21.4179L10.8342 21.5589M4.60269 21.7951L16.2918 20.9825M4.60269 21.7951C4.60677 21.7597 4.69231 21.721 4.84139 21.6801M16.2918 20.9825C16.3534 20.9534 16.4119 20.9242 16.4673 20.8947M16.4673 20.8947L4.84139 21.6801M16.4673 20.8947C16.5465 20.8526 16.6195 20.8101 16.6866 20.7674M4.84139 21.6801C4.95344 21.6493 5.10137 21.6173 5.27759 21.5844M5.27759 21.5844L16.6866 20.7674M5.27759 21.5844C5.53071 21.5371 5.84217 21.4882 6.18946 21.4388M16.6866 20.7674C16.7287 20.7406 16.7684 20.7137 16.8059 20.6867M16.8903 20.6229L6.68138 21.3716M16.8903 20.6229C16.9214 20.5982 16.9507 20.5734 16.9782 20.5486M16.8903 20.6229C16.8636 20.6442 16.8354 20.6655 16.8059 20.6867M6.68138 21.3716C7.1305 21.3123 7.61632 21.2534 8.10017 21.1969M6.68138 21.3716C6.51145 21.394 6.34678 21.4164 6.18946 21.4388M8.61113 21.1381L17.0718 20.4571M8.61113 21.1381C9.42768 21.0451 10.1984 20.9619 10.7301 20.8996M8.61113 21.1381C8.4422 21.1573 8.27131 21.177 8.10017 21.1969M17.0718 20.4571C17.0947 20.4325 17.116 20.4081 17.1357 20.3836M17.0718 20.4571C17.0432 20.4875 17.0121 20.5181 16.9782 20.5486M17.2551 20.1978C17.2667 20.1739 17.2767 20.1501 17.2853 20.1265M17.2551 20.1978C17.2364 20.2363 17.2139 20.2752 17.1872 20.3143M12.1396 20.6229C12.047 20.6522 11.9535 20.6798 11.8589 20.7054M12.1396 20.6229L15.797 20.1868M12.1396 20.6229C12.2373 20.5919 12.334 20.559 12.4296 20.5245M17.3172 20.0056C17.314 20.025 17.3099 20.0445 17.3048 20.0641M17.3172 20.0056L15.797 20.1868M17.3172 20.0056C17.3204 19.9858 17.3226 19.9661 17.3238 19.9466M17.2853 20.1265L11.8589 20.7054M17.2853 20.1265C17.293 20.1056 17.2994 20.0848 17.3048 20.0641M11.1449 20.8488L17.1872 20.3143M11.1449 20.8488C11.0327 20.8636 10.8925 20.8806 10.7301 20.8996M17.1872 20.3143C17.1715 20.3373 17.1543 20.3604 17.1357 20.3836M17.1357 20.3836L10.7301 20.8996M16.9782 20.5486L8.10017 21.1969M6.18946 21.4388L16.8059 20.6867M17.3048 20.0641L15.797 20.1868M17.3238 19.8757C17.3213 19.8367 17.3149 19.7985 17.3048 19.7614M17.3238 19.8757C17.3252 19.8991 17.3252 19.9227 17.3238 19.9466M17.3238 19.8757L15.3432 20.1383M12.4296 20.5245C12.5325 20.4873 12.6341 20.4483 12.7346 20.4079M12.4296 20.5245L15.3432 20.1383M12.7346 20.4079L17.3048 19.7614M12.7346 20.4079C12.8104 20.3774 12.8855 20.3462 12.96 20.3143M17.3048 19.7614C17.2994 19.7414 17.2929 19.7217 17.2853 19.7023M17.3238 19.9466L15.3432 20.1383M12.96 20.3143L17.2853 19.7023M12.96 20.3143C13.0289 20.2847 13.0973 20.2547 13.1651 20.2243M17.2853 19.7023C17.2766 19.6798 17.2665 19.6578 17.2551 19.6362M17.2551 19.6362L13.1651 20.2243M17.2551 19.6362C17.2437 19.6148 17.2311 19.5939 17.2173 19.5734M13.1651 20.2243C13.2283 20.1959 13.2911 20.1672 13.3533 20.1383M13.3533 20.1383L17.2173 19.5734M13.3533 20.1383C13.4278 20.1037 13.5015 20.0689 13.5746 20.034M17.2173 19.5734C17.2007 19.5488 17.1823 19.525 17.1624 19.5019M17.1624 19.5019L13.5746 20.034M17.1624 19.5019C17.1433 19.48 17.1228 19.4587 17.1009 19.4382M13.5746 20.034C13.6453 20.0002 13.7154 19.9663 13.7848 19.9326M13.7848 19.9326L17.1009 19.4382M13.7848 19.9326C13.8421 19.9047 13.899 19.8769 13.9555 19.8494M17.1009 19.4382C17.0719 19.411 17.0404 19.3851 17.0067 19.3607M17.0067 19.3607C16.9787 19.3404 16.9491 19.321 16.9181 19.3028C16.9089 19.2973 16.8996 19.292 16.8903 19.2868M17.0067 19.3607L13.9555 19.8494M13.9555 19.8494C14.0226 19.8166 14.0891 19.7841 14.155 19.752M14.155 19.752L16.8903 19.2868M14.155 19.752C14.2228 19.7191 14.2899 19.6866 14.3564 19.6548M16.8903 19.2868C16.8506 19.2645 16.8105 19.2443 16.7702 19.2261M16.7702 19.2261L14.3564 19.6548M16.7702 19.2261C16.728 19.2071 16.6855 19.1904 16.6426 19.1758M14.3564 19.6548C14.4143 19.6271 14.4717 19.5999 14.5286 19.5734M14.5286 19.5734L16.6426 19.1758M14.5286 19.5734C14.5949 19.5425 14.6605 19.5125 14.7255 19.4836M16.6426 19.1758C16.5752 19.1528 16.507 19.1351 16.438 19.1223M16.438 19.1223L14.7255 19.4836M16.438 19.1223C16.3497 19.1059 16.26 19.0975 16.1688 19.0961M14.7255 19.4836C14.8002 19.4503 14.8741 19.4185 14.9472 19.3883M14.9472 19.3883C15.3811 19.2093 15.7873 19.0905 16.1688 19.0961M14.9472 19.3883L16.1688 19.0961M14.0038 5.18372C13.9084 4.26551 14.2748 2.63895 16.1348 2.63895C17.8867 2.63895 18.1944 4.09992 17.9369 4.97821C17.927 5.012 17.9075 5.04219 17.8815 5.06722L15.0562 7.78438C15.0252 7.81425 14.986 7.83543 14.9424 7.84328C14.3494 7.95011 13.2077 7.87449 13.0282 6.89647C12.8721 6.04549 13.3954 5.62433 13.8129 5.46613C13.9331 5.42057 14.0165 5.3053 14.0038 5.18372ZM17.8244 8.79928C18.8215 8.89521 20.5928 8.5324 20.5928 6.68194C20.5928 4.94055 19.0046 4.6351 18.0503 4.89133C18.0141 4.90106 17.9819 4.91999 17.9554 4.94521L14.9994 7.75624C14.9686 7.78552 14.9469 7.82216 14.9388 7.86267C14.8215 8.45079 14.9016 9.59034 15.9667 9.76909C16.8976 9.92531 17.3551 9.39723 17.5243 8.98104C17.571 8.8661 17.6945 8.78679 17.8244 8.79928Z" stroke="black" stroke-linecap="round"/>
</svg>
