<svg width="24" height="24" viewBox="0 0 24 24" fill="none" xmlns="http://www.w3.org/2000/svg">
<path d="M1 2H2.30034C3.27458 2 4.11483 2.6662 4.3121 3.59503L6.60793 14.405C6.80519 15.3338 7.64545 16 8.61968 16H16.4073M6.35201 12.08H19.6279C20.5644 12.08 21.3824 11.4633 21.6168 10.5805L22.9336 5.62047C23.2697 4.35437 22.2878 3.12 20.9446 3.12H8.19008M18.4616 16H20.5159M7.807 21.9854C7.8975 21.9724 10.0885 21.6903 9.99723 19.723C9.98884 19.5422 9.96549 19.3778 9.92918 19.2287C9.88374 19.0421 9.818 18.8796 9.73595 18.7393C9.06329 17.5892 7.29426 17.9328 6.62063 18.7393C6.35631 19.0561 5.80233 19.8594 6.0723 20.8635C6.24153 21.4929 6.79056 21.8943 7.36364 21.9819C7.51187 22.0045 7.66171 22.0062 7.807 21.9854ZM17.807 21.9854C17.8975 21.9724 20.0885 21.6903 19.9972 19.723C19.9888 19.5422 19.9655 19.3778 19.9292 19.2287C19.8837 19.0421 19.818 18.8796 19.736 18.7393C19.0633 17.5892 17.2943 17.9328 16.6206 18.7393C16.3563 19.0561 15.8023 19.8594 16.0723 20.8635C16.2415 21.4929 16.7906 21.8943 17.3636 21.9819C17.5119 22.0045 17.6617 22.0062 17.807 21.9854Z" stroke="black" stroke-linecap="round"/>
</svg>
