<svg width="1054" height="773" viewBox="0 0 1054 773" fill="none" xmlns="http://www.w3.org/2000/svg">
<path d="M807.164 720.831C775.157 694.752 818.525 691.689 844.209 693.418V710.459L905.705 726.018C886.194 735.156 839.171 746.911 807.164 720.831Z" fill="#A0A0A0"/>
<path d="M975.35 705.272C954.605 707.643 948.431 698.357 947.937 693.418H992.391C995.355 696.382 996.096 702.902 975.35 705.272Z" fill="#A0A0A0"/>
<path d="M928.673 633.405C905.705 633.405 893.11 631.923 874.587 630.441" stroke="#A0A0A0" stroke-width="5" stroke-linecap="round"/>
<path d="M946.455 642.296V713.423" stroke="#A0A0A0" stroke-width="5" stroke-linecap="round"/>
<path d="M893.11 646L844.21 642.296" stroke="#A0A0A0" stroke-width="5" stroke-linecap="round"/>
<path d="M916.078 653.409V725.277" stroke="#A0A0A0" stroke-width="5" stroke-linecap="round"/>
<path d="M915.337 726.759L946.455 714.164" stroke="#A0A0A0" stroke-width="5" stroke-linecap="round"/>
<path d="M873.847 630.441L844.21 642.296" stroke="#A0A0A0" stroke-width="5" stroke-linecap="round"/>
<path d="M843.47 643.037V711.2" stroke="#A0A0A0" stroke-width="5" stroke-linecap="round"/>
<path d="M842.729 710.459L915.337 726.759" stroke="#A0A0A0" stroke-width="5" stroke-linecap="round"/>
<path d="M928.673 634.887V614.142" stroke="#A0A0A0" stroke-width="5" stroke-linecap="round"/>
<path d="M993.132 692.677V620.81" stroke="#A0A0A0" stroke-width="5" stroke-linecap="round"/>
<path d="M1027.95 597.101V677.118" stroke="#A0A0A0" stroke-width="5" stroke-linecap="round"/>
<path d="M993.132 694.159L1027.95 677.118" stroke="#A0A0A0" stroke-width="5" stroke-linecap="round"/>
<path d="M1027.95 596.36L949.419 593.396" stroke="#A0A0A0" stroke-width="5" stroke-linecap="round"/>
<path d="M928.673 614.142L949.419 593.396" stroke="#A0A0A0" stroke-width="5" stroke-linecap="round"/>
<path d="M993.132 620.069L1027.21 597.842" stroke="#A0A0A0" stroke-width="5" stroke-linecap="round"/>
<path d="M993.132 692.678H949.419" stroke="#A0A0A0" stroke-width="5" stroke-linecap="round"/>
<path d="M929.415 614.142L971.646 615.623" stroke="#A0A0A0" stroke-width="5" stroke-linecap="round"/>
<path d="M337.382 752.019C338.123 731.274 421.104 737.942 426.29 738.683V752.019L451.481 769.8C413.201 770.788 336.789 768.615 337.382 752.019Z" fill="#A0A0A0"/>
<path d="M543.353 749.795V674.223" stroke="#A0A0A0" stroke-width="5" stroke-linecap="round"/>
<path d="M478.894 769.058V686.077" stroke="#A0A0A0" stroke-width="5" stroke-linecap="round"/>
<path d="M425.549 749.795V666.813" stroke="#A0A0A0" stroke-width="5" stroke-linecap="round"/>
<path d="M425.549 666.814L484.08 651.996" stroke="#A0A0A0" stroke-width="5" stroke-linecap="round"/>
<path d="M543.353 673.482L478.894 685.337" stroke="#A0A0A0" stroke-width="5" stroke-linecap="round"/>
<path d="M478.894 769.8L543.353 750.536" stroke="#A0A0A0" stroke-width="5" stroke-linecap="round"/>
<path d="M543.352 673.482L484.08 651.996" stroke="#A0A0A0" stroke-width="5" stroke-linecap="round"/>
<path d="M425.549 667.555L479.635 685.336" stroke="#A0A0A0" stroke-width="5" stroke-linecap="round"/>
<path d="M615.584 748.313C601.951 724.604 645.467 721.147 668.929 722.382V739.423L745.242 748.313C707.703 758.192 629.216 772.022 615.584 748.313Z" fill="#A0A0A0"/>
<path d="M783.027 716.454L754.131 746.09" stroke="#A0A0A0" stroke-width="5" stroke-linecap="round"/>
<path d="M747.463 655.7L672.632 650.514" stroke="#A0A0A0" stroke-width="5" stroke-linecap="round"/>
<path d="M703.009 631.25L783.026 634.955" stroke="#A0A0A0" stroke-width="5" stroke-linecap="round"/>
<path d="M671.15 650.514L667.445 736.459" stroke="#A0A0A0" stroke-width="5" stroke-linecap="round"/>
<path d="M783.026 636.437V714.972" stroke="#A0A0A0" stroke-width="5" stroke-linecap="round"/>
<path d="M754.131 683.113V746.09" stroke="#A0A0A0" stroke-width="5" stroke-linecap="round"/>
<path d="M671.15 650.514L703.009 631.25" stroke="#A0A0A0" stroke-width="5" stroke-linecap="round"/>
<path d="M754.131 746.091L666.705 737.2" stroke="#A0A0A0" stroke-width="5" stroke-linecap="round"/>
<path d="M600.133 193.026C603.344 192.038 611.839 191.1 620.137 195.249" stroke="black" stroke-width="5" stroke-linecap="round"/>
<path d="M570.497 231.553C576.225 231.553 580.869 226.578 580.869 220.44C580.869 214.302 576.225 209.326 570.497 209.326C564.768 209.326 560.124 214.302 560.124 220.44C560.124 226.578 564.768 231.553 570.497 231.553Z" fill="black"/>
<path d="M654.96 246.372C660.689 246.372 665.333 241.396 665.333 235.258C665.333 229.12 660.689 224.145 654.96 224.145C649.231 224.145 644.587 229.12 644.587 235.258C644.587 241.396 649.231 246.372 654.96 246.372Z" fill="black"/>
<path d="M545.306 202.658C546.047 197.965 550.641 189.025 563.088 190.803" stroke="black" stroke-width="5" stroke-linecap="round"/>
<path d="M640.142 201.176C646.069 195.99 660.887 188.729 672.742 201.176" stroke="black" stroke-width="5" stroke-linecap="round"/>
<path d="M608.283 213.771C615.198 225.133 624.879 249.483 608.283 256.003L600.133 258.967" stroke="black" stroke-width="5" stroke-linecap="round"/>
<path d="M580.129 281.935C581.858 286.627 588.427 294.382 600.874 287.862" stroke="black" stroke-width="5" stroke-linecap="round"/>
<path d="M341.557 173.022C317.255 253.04 384.775 311.078 421.574 330.094C454.767 309.941 502.085 299.716 522.337 296.753C497.147 276.008 489.49 237.974 487.515 220.44C474.178 224.885 438.615 207.844 454.915 173.022C467.955 145.164 482.081 159.438 487.515 170.058L523.819 186.358C523.819 152.573 547.033 141.163 558.642 139.681C565.754 134.939 573.46 119.429 576.423 112.268C579.98 140.126 616.432 160.426 634.214 167.095C657.33 148.72 675.95 159.438 682.373 167.095L698.673 164.872C730.531 154.006 787.729 116.861 761.649 55.2181C735.57 -6.42515 681.632 4.83659 657.923 18.1729C576.72 -35.765 495.17 43.1161 464.547 89.2997C433.675 83.8659 365.858 93.0042 341.557 173.022Z" fill="black"/>
<path d="M523.079 187.099L487.516 168.577" stroke="black" stroke-width="5" stroke-linecap="round"/>
<path d="M599.392 185.618C599.392 211.171 581.927 230.813 561.606 230.813C541.284 230.813 523.82 211.171 523.82 185.618C523.82 160.062 541.284 140.422 561.606 140.422C581.927 140.422 599.392 160.062 599.392 185.618Z" stroke="black" stroke-width="5"/>
<path d="M697.191 201.917C697.191 227.471 679.727 247.112 659.405 247.112C639.084 247.112 621.619 227.471 621.619 201.917C621.619 176.362 639.084 156.722 659.405 156.722C679.727 156.722 697.191 176.362 697.191 201.917Z" stroke="black" stroke-width="5"/>
<path d="M698.673 344.742C755.575 299.102 723.123 237.558 699.414 212.12C686.374 273.763 656.196 300.287 643.105 306.214L663.851 317.328L698.673 344.742Z" fill="black"/>
<path d="M491.961 185.618C490.727 172.034 474.92 139.681 457.88 170.059C450.471 183.888 445.136 213.476 483.07 221.181" stroke="black" stroke-width="5" stroke-linecap="round"/>
<path d="M479.366 180.431C475.909 183.395 470.771 191.1 477.884 198.213" stroke="black" stroke-width="5" stroke-linecap="round"/>
<path d="M694.23 218.958C690.081 242.667 680.892 264.143 671.26 277.489C665.238 285.835 655.48 296.369 643.039 305.552" stroke="black" stroke-width="5" stroke-linecap="round"/>
<path d="M486.775 221.181C486.281 251.31 498.038 296.012 551.976 319.721C560.273 323.368 568.43 325.46 576.358 326.303" stroke="black" stroke-width="5" stroke-linecap="round"/>
<path d="M637.919 356.025C626.065 353.062 614.705 362.694 610.506 367.88C608.283 372.573 607.246 381.809 620.879 381.216C637.919 380.475 643.106 356.025 663.11 395.293C679.114 426.708 680.151 488.4 678.669 515.32" stroke="black" stroke-width="5" stroke-linecap="round" stroke-linejoin="round"/>
<path d="M599.135 347.875C595.269 356.272 592.131 372.028 610.505 367.879" stroke="black" stroke-width="5" stroke-linecap="round" stroke-linejoin="round"/>
<path d="M606.286 318.98C595.913 323.426 580.87 339.429 586.797 350.098C587.538 351.333 589.761 353.655 592.725 353.062C594.023 352.803 596.139 350.543 599.136 347.876C604.696 342.928 613.291 336.578 625.324 338.985" stroke="black" stroke-width="5" stroke-linecap="round" stroke-linejoin="round"/>
<path d="M813.619 573.391C821.028 537.087 813.81 451.898 723.123 370.102L663.11 317.498L625.324 297.494L617.916 296.012L589.762 302.68L586.797 305.643L577.165 323.425C575.683 327.13 582.056 331.427 592.725 327.871" stroke="black" stroke-width="5" stroke-linecap="round" stroke-linejoin="round"/>
<path d="M520.117 299.717C471.958 306.137 346.938 333.744 271.173 445.675C199.767 551.165 280.526 595.619 340.539 597.842" stroke="black" stroke-width="5" stroke-linecap="round" stroke-linejoin="round"/>
<path d="M3.06982 612.659L337.217 596.359" stroke="#A0A0A0" stroke-width="5" stroke-linecap="round" stroke-linejoin="round"/>
<path d="M428.349 592.656L1050.93 565.531" stroke="#A0A0A0" stroke-width="5" stroke-linecap="round"/>
<path d="M372.848 598.98C373.764 601.82 373.09 603.862 369.521 604.169C358.961 605.074 346.418 588.703 341.469 580.405" stroke="black" stroke-width="5" stroke-linecap="round"/>
<path d="M372.822 566.826C378.093 575.247 387.284 588.224 395.342 595.585C394.607 601.243 389.079 609.843 372.848 598.98C370.377 591.313 356.32 577.836 356.32 577.011" stroke="black" stroke-width="5" stroke-linecap="round"/>
<path d="M387.123 558.905C397.206 570.032 415.505 593.871 408.025 600.208C406.699 601.331 405.008 601.439 403.074 600.781C400.772 599.997 398.125 598.126 395.342 595.584C387.284 588.223 378.093 575.247 372.822 566.825" stroke="black" stroke-width="5" stroke-linecap="round"/>
<path d="M304.234 587.904C321.102 566.781 375.022 520.996 405.824 548.721C418.108 560.98 433.418 583.137 424.618 592.19C420.217 595.585 410.692 591.058 404.548 582.005" stroke="black" stroke-width="5" stroke-linecap="round"/>
<path d="M364.325 467.442C353.705 475.84 337.06 497.671 355.434 517.824" stroke="black" stroke-width="5" stroke-linecap="round"/>
</svg>
